<?xml version="1.0" encoding="UTF-8"?>
<!DOCTYPE svg PUBLIC "-//W3C//DTD SVG 1.1//EN" "http://www.w3.org/Graphics/SVG/1.1/DTD/svg11.dtd">
<svg xmlns="http://www.w3.org/2000/svg" xmlns:xlink="http://www.w3.org/1999/xlink" width="2408" height="2408" version="1.1" style="font-family:'Arial',sans-serif;text-anchor:middle;font-size:29px">
<style>
.canal {stroke:black;stroke-width:1px;}
</style>
<defs>
	<rect id="y" class="canal" width="50" height="50" style="fill:#FED800"/>
	<rect id="r" class="canal" width="50" height="50" style="fill:#DE1700"/>
	<rect id="b" class="canal" width="50" height="50" style="fill:#0067CE"/>
	<rect id="g" class="canal" width="50" height="50" style="fill:#00B150"/>	
	<g id="e">
		<rect width="50" height="50" class="canal" style="fill:#033000;fill-opacity:0.3569"/>
		<circle cx="25" cy="25" r="3.5" fill="#000"/>
	</g>
	<g id="e2">
		<use xlink:href="#e"/>
		<use xlink:href="#e" x="50"/>
	</g>
	<g id="e3">
		<use xlink:href="#e2" x="50"/>
		<use xlink:href="#e"/>
	</g>
	<g id="g0">
		<use xlink:href="#g"/>
		<text x="25" y="25" dy="10">0</text>
	</g>
	<g id="e3g0">
		<use xlink:href="#e3"/>
		<use xlink:href="#g0" x="150"/>
	</g>
	<g id="y0">
		<use xlink:href="#y"/>
		<text x="25" y="25" dy="10">0</text>
	</g>
</defs>
<g id="line1">
	<use xlink:href="#e3" x="854" y="4"/>
	<use xlink:href="#e3" x="1004" y="4"/>
	<use xlink:href="#e3" x="1154" y="4"/>
	<use xlink:href="#e3" x="1304" y="4"/>
	<use xlink:href="#e2" x="1454" y="4"/>
</g>
<use xlink:href="#e3g0" x="704" y="54"/>
<use xlink:href="#e3g0" x="904" y="54"/>
<use xlink:href="#e3g0" x="1104" y="54"/>
<use xlink:href="#e3g0" x="1304" y="54"/>
<use xlink:href="#e2" x="1504" y="54"/>
<use xlink:href="#e2" x="1604" y="54"/>
<g id="line3">
	<use xlink:href="#e2" x="604" y="104"/>
	<use xlink:href="#line47" y="-2200"/>
	<use xlink:href="#e2" x="1704" y="104"/>
</g>
<use xlink:href="#e" x="504" y="154"/>
<use xlink:href="#y0" x="554" y="154"/>
<use xlink:href="#e3g0" x="604" y="154"/>
<use xlink:href="#e3" x="804" y="154"/>
<use xlink:href="#y" x="954" y="154"/>
	<text x="979" y="179" dy="10">86</text>
<use xlink:href="#e3g0" x="1004" y="154"/>
<use xlink:href="#e3" x="1204" y="154"/>
<use xlink:href="#y" x="1354" y="154"/>
	<text x="1379" y="179" dy="10">20</text>
<use xlink:href="#e3g0" x="1404" y="154"/>
<use xlink:href="#e3" x="1604" y="154"/>
<use xlink:href="#y0" x="1754" y="154"/>
<use xlink:href="#e2" x="1804" y="154"/>
<g id="line5">
	<use xlink:href="#e" x="454" y="204"/>
	<use xlink:href="#line45" y="-2000"/>
	<use xlink:href="#e" x="1904" y="204"/>
</g>
<use xlink:href="#e" x="404" y="254"/>
<use xlink:href="#g0" x="454" y="254"/>
<use xlink:href="#e3g0" x="504" y="254"/>
<use xlink:href="#e3" x="704" y="254"/>
<use xlink:href="#g" x="854" y="254"/>
	<text x="879" y="279" dy="10">240</text>
<use xlink:href="#e3g0" x="904" y="254"/>
<use xlink:href="#e3g0" x="1104" y="254"/>
<use xlink:href="#e3g0" x="1304" y="254"/>
<use xlink:href="#e3g0" x="1504" y="254"/>
<use xlink:href="#e3g0" x="1704" y="254"/>
<use xlink:href="#e2" x="1904" y="254"/>
<g id="line7">
	<use xlink:href="#e" x="354" y="304"/>
	<use xlink:href="#line43" y="-1800"/>
	<use xlink:href="#e" x="2004" y="304"/>
</g>
<use xlink:href="#e" x="304" y="354"/>
<use xlink:href="#g0" x="354" y="354"/>
<use xlink:href="#e3g0" x="404" y="354"/>
<use xlink:href="#e3" x="604" y="354"/>
<use xlink:href="#b" x="754" y="354"/>
<use xlink:href="#e3g0" x="804" y="354"/>
<use xlink:href="#e3" x="1004" y="354"/>
<use xlink:href="#g" x="1154" y="354"/>
	<text x="1179" y="379" dy="10">110</text>
<use xlink:href="#e3g0" x="1204" y="354"/>
<use xlink:href="#e3" x="1404" y="354"/>
<use xlink:href="#b" x="1554" y="354"/>
<use xlink:href="#e3g0" x="1604" y="354"/>
<use xlink:href="#e3g0" x="1804" y="354"/>
<use xlink:href="#e2" x="2004" y="354"/>
<g id="line9">
	<use xlink:href="#e" x="254" y="404"/>
	<use xlink:href="#line41" y="-1600"/>
	<use xlink:href="#e" x="2104" y="404"/>
</g>
<use xlink:href="#e" x="204" y="454"/>
<use xlink:href="#g0" x="254" y="454"/>
<use xlink:href="#e3g0" x="304" y="454"/>
<use xlink:href="#e3g0" x="504" y="454"/>
<use xlink:href="#e3g0" x="704" y="454"/>
<use xlink:href="#e3g0" x="904" y="454"/>
<use xlink:href="#e3g0" x="1104" y="454"/>
<use xlink:href="#e3g0" x="1304" y="454"/>
<use xlink:href="#e3g0" x="1504" y="454"/>
<use xlink:href="#e3g0" x="1704" y="454"/>
<use xlink:href="#e3g0" x="1904" y="454"/>
<use xlink:href="#e2" x="2104" y="454"/>
<g id="line11">
	<use xlink:href="#e" x="154" y="504"/>
	<use xlink:href="#line39" y="-1400"/>
	<use xlink:href="#e" x="2204" y="504"/>
</g>
<g id="y_line12">
	<use xlink:href="#y0" x="154" y="554"/>
	<use xlink:href="#y0" x="554" y="554"/>
	<use xlink:href="#y0" x="954" y="554"/>
	<use xlink:href="#y0" x="1354" y="554"/>
</g>
<use xlink:href="#e3g0" x="204" y="554"/>
<use xlink:href="#e3" x="404" y="554"/>
<use xlink:href="#e3" x="604" y="554"/>
<use xlink:href="#g" x="754" y="554"/>
	<text x="779" y="579" dy="10">30</text>
<use xlink:href="#e3" x="804" y="554"/>
<use xlink:href="#e3" x="1004" y="554"/>
<use xlink:href="#r" x="1154" y="554"/>
	<text x="1179" y="579" dy="10">140</text>
<use xlink:href="#e3" x="1204" y="554"/>
<use xlink:href="#e3g0" x="1404" y="554"/>
<use xlink:href="#e3" x="1604" y="554"/>
<use xlink:href="#y0" x="1754" y="554"/>
<use xlink:href="#e3g0" x="1804" y="554"/>
<use xlink:href="#e3" x="2004" y="554"/>
<use xlink:href="#y0" x="2154" y="554"/>
<use xlink:href="#e" x="2204" y="554"/>
<g id="line13">
	<use xlink:href="#e" x="104" y="604"/>
	<use xlink:href="#line11" y="100"/>
	<use xlink:href="#e" x="2254" y="604"/>
</g>
<use xlink:href="#e3g0" x="104" y="654"/>
<use xlink:href="#e3g0" x="304" y="654"/>
<use xlink:href="#e3g0" x="504" y="654"/>
<use xlink:href="#e3g0" x="704" y="654"/>
<use xlink:href="#e3g0" x="904" y="654"/>
<use xlink:href="#e3g0" x="1104" y="654"/>
<use xlink:href="#e3" x="1304" y="654"/>
<use xlink:href="#g" x="1454" y="654"/>
	<text x="1479" y="679" dy="10">120</text>
<use xlink:href="#e3g0" x="1504" y="654"/>
<use xlink:href="#e3g0" x="1704" y="654"/>
<use xlink:href="#e3g0" x="1904" y="654"/>
<use xlink:href="#e2" x="2104" y="654"/>
<use xlink:href="#e2" x="2204" y="654"/>
<g id="line15">
	<use xlink:href="#e" x="54" y="704"/>
	<use xlink:href="#line13" y="100"/>
	<use xlink:href="#e" x="2304" y="704"/>
</g>
<g id="egbr_line16">
	<use xlink:href="#e2" x="54" y="754"/>
	<use xlink:href="#g0" x="154" y="754"/>
	<use xlink:href="#e3" x="204" y="754"/>
	<use xlink:href="#b" x="354" y="754"/>
	<use xlink:href="#e3" x="404" y="754"/>
	<use xlink:href="#e3" x="604" y="754"/>
	<use xlink:href="#r" x="754" y="754"/>
		<text x="779" y="779" dy="10">160</text>
	<use xlink:href="#e3" x="804" y="754"/>
	<use xlink:href="#g0" x="954" y="754"/>
	<use xlink:href="#e3" x="1004" y="754"/>
	<use xlink:href="#b" x="1154" y="754"/>
	<use xlink:href="#e3" x="1204" y="754"/>
	<use xlink:href="#g0" x="1354" y="754"/>
	<use xlink:href="#e3" x="1404" y="754"/>
	<use xlink:href="#r" x="1554" y="754"/>
		<text x="1579" y="779" dy="10">160</text>
	<use xlink:href="#e3" x="1604" y="754"/>
	<use xlink:href="#e3" x="1804" y="754"/>
	<use xlink:href="#b" x="1954" y="754"/>
	<use xlink:href="#e3" x="2004" y="754"/>
	<use xlink:href="#g0" x="2154" y="754"/>
	<use xlink:href="#e3" x="2204" y="754"/>
</g>
<use xlink:href="#g" x="554" y="754"/>
	<text x="579" y="779" dy="10">70</text>
<use xlink:href="#g" x="1754" y="754"/>
	<text x="1779" y="779" dy="10">30</text>
<use xlink:href="#line15" y="100"/>
<use xlink:href="#g0" x="54" y="854"/>
<use xlink:href="#g0" x="254" y="854"/>
<use xlink:href="#g" x="454" y="854"/>
	<text x="479" y="879" dy="10">120</text>
<use xlink:href="#g0" x="854" y="854"/>
<use xlink:href="#g" x="1054" y="854"/>
	<text x="1079" y="879" dy="10">100</text>
<use xlink:href="#g0" x="1254" y="854"/>
<use xlink:href="#g" x="1454" y="854"/>
	<text x="1479" y="879" dy="10">30</text>
<use xlink:href="#g0" x="1654" y="854"/>
<use xlink:href="#g" x="1854" y="854"/>
	<text x="1879" y="879" dy="10">20</text>
<use xlink:href="#g" x="2054" y="854"/>
	<text x="2079" y="879" dy="10">140</text>
<use xlink:href="#g0" x="2254" y="854"/>
<g id="eg_line18">
	<use xlink:href="#e" x="4" y="854"/>
	<use xlink:href="#e3" x="104" y="854"/>
	<use xlink:href="#e3" x="304" y="854"/>
	<use xlink:href="#e3" x="504" y="854"/>
	<use xlink:href="#g0" x="654" y="854"/>
	<use xlink:href="#e3" x="704" y="854"/>
	<use xlink:href="#e3" x="904" y="854"/>
	<use xlink:href="#e3" x="1104" y="854"/>
	<use xlink:href="#e3" x="1304" y="854"/>
	<use xlink:href="#e3" x="1504" y="854"/>
	<use xlink:href="#e3" x="1704" y="854"/>
	<use xlink:href="#e3" x="1904" y="854"/>
	<use xlink:href="#e3" x="2104" y="854"/>
	<use xlink:href="#e2" x="2304" y="854"/>
</g>
<g id="line19">
	<use xlink:href="#e" x="4" y="904"/>
	<use xlink:href="#line15" y="200"/>
	<use xlink:href="#e" x="2354" y="904"/>
</g>
<g id="e_line20">
	<use xlink:href="#e3" x="4" y="954"/>
	<use xlink:href="#e3" x="204" y="954"/>
	<use xlink:href="#e3" x="404" y="954"/>
	<use xlink:href="#e3" x="604" y="954"/>
	<use xlink:href="#e3" x="804" y="954"/>
	<use xlink:href="#e3" x="1004" y="954"/>
	<use xlink:href="#e3" x="1204" y="954"/>
	<use xlink:href="#e3" x="1404" y="954"/>
	<use xlink:href="#e3" x="1604" y="954"/>
	<use xlink:href="#e3" x="1804" y="954"/>
	<use xlink:href="#e3" x="2004" y="954"/>
	<use xlink:href="#e2" x="2204" y="954"/>
	<use xlink:href="#e2" x="2304" y="954"/>
</g>
<use xlink:href="#y_line12" y="400"/>
<use xlink:href="#g0" x="354" y="954"/>
<use xlink:href="#g0" x="754" y="954"/>
<use xlink:href="#r" x="1154" y="954"/>
	<text x="1179" y="979" dy="10">20</text>
<use xlink:href="#g" x="1554" y="954"/>
	<text x="1579" y="979" dy="10">80</text>
<use xlink:href="#y" x="1754" y="954"/>
	<text x="1779" y="979" dy="10">120</text>
<use xlink:href="#g0" x="1954" y="954"/>
<use xlink:href="#y" x="2154" y="954"/>
	<text x="2179" y="979" dy="10">190</text>
<use xlink:href="#line19" y="100"/>
<use xlink:href="#eg_line18" y="200"/>
<use xlink:href="#g0" x="54" y="1054"/>
<use xlink:href="#g0" x="254" y="1054"/>
<use xlink:href="#g0" x="454" y="1054"/>
<use xlink:href="#g" x="854" y="1054"/>
	<text x="879" y="1079" dy="10">20</text>
<use xlink:href="#g0" x="1054" y="1054"/>
<use xlink:href="#g0" x="1254" y="1054"/>
<use xlink:href="#g0" x="1454" y="1054"/>
<use xlink:href="#g" x="1654" y="1054"/>
	<text x="1679" y="1079" dy="10">140</text>
<use xlink:href="#g0" x="1854" y="1054"/>
<use xlink:href="#g0" x="2054" y="1054"/>
<use xlink:href="#g" x="2254" y="1054"/>
	<text x="2279" y="1079" dy="10">180</text>
<use xlink:href="#line19" y="200"/>
<use xlink:href="#e_line20" y="200"/>
<use xlink:href="#g0" x="154" y="1154"/>
<use xlink:href="#g0" x="354" y="1154"/>
<use xlink:href="#r" x="554" y="1154"/>
	<text x="579" y="1179" dy="10">140</text>
<use xlink:href="#b" x="754" y="1154"/>
<use xlink:href="#r" x="954" y="1154"/>
	<text x="979" y="1179" dy="10">20</text>
<use xlink:href="#g0" x="1154" y="1154"/>
<use xlink:href="#r" x="1354" y="1154"/>
	<text x="1379" y="1179" dy="10">20</text>
<use xlink:href="#b" x="1554" y="1154"/>
<use xlink:href="#r" x="1754" y="1154"/>
	<text x="1779" y="1179" dy="10">140</text>
<use xlink:href="#g0" x="1954" y="1154"/>
<use xlink:href="#g0" x="2154" y="1154"/>
<use xlink:href="#line19" y="300"/>
<use xlink:href="#eg_line18" y="400"/>
<use xlink:href="#g0" x="54" y="1254"/>
<use xlink:href="#g0" x="254" y="1254"/>
<use xlink:href="#g0" x="454" y="1254"/>
<use xlink:href="#g0" x="854" y="1254"/>
<use xlink:href="#g0" x="1054" y="1254"/>
<use xlink:href="#g" x="1254" y="1254"/>
	<text x="1279" y="1279" dy="10">90</text>
<use xlink:href="#g0" x="1454" y="1254"/>
<use xlink:href="#g0" x="1654" y="1254"/>
<use xlink:href="#g0" x="1854" y="1254"/>
<use xlink:href="#g0" x="2054" y="1254"/>
<use xlink:href="#g0" x="2254" y="1254"/>
<use xlink:href="#e_line20" y="400"/>
<use xlink:href="#line19" y="400"/>
<use xlink:href="#y" x="154" y="1354"/>
	<text x="179" y="1379" dy="10">180</text>
<use xlink:href="#g0" x="354" y="1354"/>
<use xlink:href="#y0" x="554" y="1354"/>
<use xlink:href="#g0" x="754" y="1354"/>
<use xlink:href="#y0" x="954" y="1354"/>
<use xlink:href="#r" x="1154" y="1354"/>
	<text x="1179" y="1379" dy="10">20</text>
<use xlink:href="#y" x="1354" y="1354"/>
	<text x="1379" y="1379" dy="10">20</text>
<use xlink:href="#g0" x="1554" y="1354"/>
<use xlink:href="#y" x="1754" y="1354"/>
	<text x="1779" y="1379" dy="10">100</text>
<use xlink:href="#g" x="1954" y="1354"/>
	<text x="1979" y="1379" dy="10">170</text>
<use xlink:href="#y0" x="2154" y="1354"/>
<use xlink:href="#line19" y="500"/>
<use xlink:href="#eg_line18" y="600"/>
<use xlink:href="#g" x="54" y="1454"/>
	<text x="79" y="1479" dy="10">20</text>
<use xlink:href="#g" x="254" y="1454"/>
	<text x="279" y="1479" dy="10">120</text>
<use xlink:href="#g0" x="454" y="1454"/>
<use xlink:href="#g" x="854" y="1454"/>
	<text x="879" y="1479" dy="10">20</text>
<use xlink:href="#g" x="1054" y="1454"/>
	<text x="1079" y="1479" dy="10">260</text>
<use xlink:href="#g0" x="1254" y="1454"/>
<use xlink:href="#g0" x="1454" y="1454"/>
<use xlink:href="#g" x="1654" y="1454"/>
	<text x="1679" y="1479" dy="10">40</text>
<use xlink:href="#g0" x="1854" y="1454"/>
<use xlink:href="#g" x="2054" y="1454"/>
	<text x="2079" y="1479" dy="10">20</text>
<use xlink:href="#g0" x="2254" y="1454"/>
<use xlink:href="#line19" y="600"/>
<use xlink:href="#egbr_line16" y="800"/>
<use xlink:href="#g0" x="554" y="1554"/>
<use xlink:href="#g0" x="1754" y="1554"/>
<use xlink:href="#line15" y="900"/>
<use xlink:href="#e2" x="54" y="1654"/>
<use xlink:href="#e2" x="154" y="1654"/>
<use xlink:href="#g0" x="254" y="1654"/>
<use xlink:href="#e3" x="304" y="1654"/>
<use xlink:href="#g0" x="454" y="1654"/>
<use xlink:href="#e3" x="504" y="1654"/>
<use xlink:href="#g0" x="654" y="1654"/>
<use xlink:href="#e3" x="704" y="1654"/>
<use xlink:href="#g0" x="854" y="1654"/>
<use xlink:href="#e3" x="904" y="1654"/>
<use xlink:href="#g0" x="1054" y="1654"/>
<use xlink:href="#e3" x="1104" y="1654"/>
<use xlink:href="#g0" x="1254" y="1654"/>
<use xlink:href="#e3" x="1304" y="1654"/>
<use xlink:href="#g0" x="1454" y="1654"/>
<use xlink:href="#e3" x="1504" y="1654"/>
<use xlink:href="#g0" x="1654" y="1654"/>
<use xlink:href="#e3" x="1704" y="1654"/>
<use xlink:href="#g" x="1854" y="1654"/>
	<text x="1879" y="1679" dy="10">30</text>
<use xlink:href="#e3" x="1904" y="1654"/>
<use xlink:href="#g0" x="2054" y="1654"/>
<use xlink:href="#e3" x="2104" y="1654"/>
<use xlink:href="#g0" x="2254" y="1654"/>
<use xlink:href="#e" x="2304" y="1654"/>
<use xlink:href="#line13" y="1100"/>
<use xlink:href="#y_line12" y="1200"/>
<use xlink:href="#e" x="104" y="1754"/>
<use xlink:href="#e3" x="204" y="1754"/>
<use xlink:href="#g" x="354" y="1754"/>
	<text x="379" y="1779" dy="10">20</text>
<use xlink:href="#e3" x="404" y="1754"/>
<use xlink:href="#e3" x="604" y="1754"/>
<use xlink:href="#g0" x="754" y="1754"/>
<use xlink:href="#e3" x="804" y="1754"/>
<use xlink:href="#e3" x="1004" y="1754"/>
<use xlink:href="#r" x="1154" y="1754"/>
	<text x="1179" y="1779" dy="10">140</text>
<use xlink:href="#e3" x="1204" y="1754"/>
<use xlink:href="#e3" x="1404" y="1754"/>
<use xlink:href="#g0" x="1554" y="1754"/>
<use xlink:href="#e3" x="1604" y="1754"/>
<use xlink:href="#y0" x="1754" y="1754"/>
<use xlink:href="#e3" x="1804" y="1754"/>
<use xlink:href="#g0" x="1954" y="1754"/>
<use xlink:href="#e3" x="2004" y="1754"/>
<use xlink:href="#y0" x="2154" y="1754"/>
<use xlink:href="#e2" x="2204" y="1754"/>
<use xlink:href="#line11" y="1300"/>
<use xlink:href="#e2" x="154" y="1854"/>
<use xlink:href="#g0" x="254" y="1854"/>
<use xlink:href="#e3" x="304" y="1854"/>
<use xlink:href="#g0" x="454" y="1854"/>
<use xlink:href="#e3" x="504" y="1854"/>
<use xlink:href="#g0" x="654" y="1854"/>
<use xlink:href="#e3" x="704" y="1854"/>
<use xlink:href="#g0" x="854" y="1854"/>
<use xlink:href="#e3" x="904" y="1854"/>
<use xlink:href="#g0" x="1054" y="1854"/>
<use xlink:href="#e3" x="1104" y="1854"/>
<use xlink:href="#g0" x="1254" y="1854"/>
<use xlink:href="#e3" x="1304" y="1854"/>
<use xlink:href="#g0" x="1454" y="1854"/>
<use xlink:href="#e3" x="1504" y="1854"/>
<use xlink:href="#g" x="1654" y="1854"/>
	<text x="1679" y="1879" dy="10">80</text>
<use xlink:href="#e3" x="1704" y="1854"/>
<use xlink:href="#g0" x="1854" y="1854"/>
<use xlink:href="#e3" x="1904" y="1854"/>
<use xlink:href="#g0" x="2054" y="1854"/>
<use xlink:href="#e3" x="2104" y="1854"/>
<g id="line39">
	<use xlink:href="#e" x="204" y="1904"/>
	<use xlink:href="#line9" y="1500"/>
	<use xlink:href="#e" x="2154" y="1904"/>
</g>
<use xlink:href="#e2" x="254" y="1954"/>
<use xlink:href="#g0" x="354" y="1954"/>
<use xlink:href="#e3" x="404" y="1954"/>
<use xlink:href="#g0" x="554" y="1954"/>
<use xlink:href="#e3" x="604" y="1954"/>
<use xlink:href="#b" x="754" y="1954"/>
<use xlink:href="#e3" x="804" y="1954"/>
<use xlink:href="#g0" x="954" y="1954"/>
<use xlink:href="#e3" x="1004" y="1954"/>
<use xlink:href="#g" x="1154" y="1954"/>
	<text x="1179" y="1979" dy="10">20</text>
<use xlink:href="#e3" x="1204" y="1954"/>
<use xlink:href="#g0" x="1354" y="1954"/>
<use xlink:href="#e3" x="1404" y="1954"/>
<use xlink:href="#b" x="1554" y="1954"/>
<use xlink:href="#e3" x="1604" y="1954"/>
<use xlink:href="#g0" x="1754" y="1954"/>
<use xlink:href="#e3" x="1804" y="1954"/>
<use xlink:href="#g0" x="1954" y="1954"/>
<use xlink:href="#e3" x="2004" y="1954"/>
<g id="line41">
	<use xlink:href="#e" x="304" y="2004"/>
	<use xlink:href="#line7" y="1700"/>
	<use xlink:href="#e" x="2054" y="2004"/>
</g>
<use xlink:href="#e2" x="354" y="2054"/>
<use xlink:href="#g0" x="454" y="2054"/>
<use xlink:href="#e3" x="504" y="2054"/>
<use xlink:href="#g0" x="654" y="2054"/>
<use xlink:href="#e3" x="704" y="2054"/>
<use xlink:href="#g0" x="854" y="2054"/>
<use xlink:href="#e3" x="904" y="2054"/>
<use xlink:href="#g0" x="1054" y="2054"/>
<use xlink:href="#e3" x="1104" y="2054"/>
<use xlink:href="#g0" x="1254" y="2054"/>
<use xlink:href="#e3" x="1304" y="2054"/>
<use xlink:href="#g" x="1454" y="2054"/>
	<text x="1479" y="2079" dy="10">30</text>
<use xlink:href="#e3" x="1504" y="2054"/>
<use xlink:href="#g0" x="1654" y="2054"/>
<use xlink:href="#e3" x="1704" y="2054"/>
<use xlink:href="#g0" x="1854" y="2054"/>
<use xlink:href="#e3" x="1904" y="2054"/>
<g id="line43">
	<use xlink:href="#e" x="404" y="2104"/>
	<use xlink:href="#line5" y="1900"/>
	<use xlink:href="#e" x="1954" y="2104"/>
</g>
<use xlink:href="#y_line12" y="1600" x="400"/>
<use xlink:href="#e2" x="454" y="2154"/>
<use xlink:href="#e3" x="604" y="2154"/>
<use xlink:href="#g0" x="754" y="2154"/>
<use xlink:href="#e3" x="804" y="2154"/>
<use xlink:href="#e3" x="1004" y="2154"/>
<use xlink:href="#g0" x="1154" y="2154"/>
<use xlink:href="#e3" x="1204" y="2154"/>
<use xlink:href="#e3" x="1404" y="2154"/>
<use xlink:href="#g0" x="1554" y="2154"/>
<use xlink:href="#e3" x="1604" y="2154"/>
<use xlink:href="#e3" x="1804" y="2154"/>
<g id="line45">
	<use xlink:href="#e2" x="504" y="2204"/>
	<use xlink:href="#line3" y="2100"/>
	<use xlink:href="#e2" x="1804" y="2204"/>
</g>
<use xlink:href="#e3" x="604" y="2254"/>
<use xlink:href="#e2" x="754" y="2254"/>
<use xlink:href="#g0" x="854" y="2254"/>
<use xlink:href="#e3" x="904" y="2254"/>
<use xlink:href="#g0" x="1054" y="2254"/>
<use xlink:href="#e3" x="1104" y="2254"/>
<use xlink:href="#g0" x="1254" y="2254"/>
<use xlink:href="#e3" x="1304" y="2254"/>
<use xlink:href="#g0" x="1454" y="2254"/>
<use xlink:href="#e3" x="1504" y="2254"/>
<use xlink:href="#g0" x="1654" y="2254"/>
<use xlink:href="#e2" x="1704" y="2254"/>
<g id="line47">
	<use xlink:href="#e3" x="704" y="2304"/>
	<use xlink:href="#line1" y="2300"/>
	<use xlink:href="#e3" x="1554" y="2304"/>
</g>
<use xlink:href="#line1" y="2350"/>
</svg>